999
dxflib 2.0.4.8
  0
SECTION
  2
HEADER
  9
$ACADVER
  1
AC1015
  9
$HANDSEED
  5
FFFF
  9
$DIMASZ
 40
2.5
  9
$GRIDUNIT
 10
0.0
 20
0.0
  9
$DIMADEC
 70
2
  9
$DIMGAP
 40
0.625
  9
$SPLINESEGS
 70
8
  9
$AUPREC
 70
2
  9
$LUNITS
 70
2
  9
$DIMEXO
 40
0.625
  9
$INSUNITS
 70
4
  9
$DIMLUNIT
 70
2
  9
$DIMTXT
 40
2.5
  9
$GRIDMODE
 70
1
  9
$LUPREC
 70
4
  9
$DIMSTYLE
  2
Standard
  9
$PLIMMAX
 10
176.0
 20
125.0
  9
$PLIMMIN
 10
0.0
 20
0.0
  9
$PINSBASE
 10
83.5301215304799172
 20
10.2757040448991219
 30
0.0
  9
$DIMEXE
 40
1.25
  9
$DIMAUNIT
 70
0
  9
$AUNITS
 70
0
  0
ENDSEC
  0
SECTION
  2
TABLES
  0
TABLE
  2
VPORT
  5
8
100
AcDbSymbolTable
 70
1
  0
VPORT
  5
30
100
AcDbSymbolTableRecord
100
AcDbViewportTableRecord
  2
*Active
 70
0
 10
0.0
 20
0.0
 11
1.0
 21
1.0
 12
286.3055555555554861
 22
148.5
 13
0.0
 23
0.0
 14
10.0
 24
10.0
 15
10.0
 25
10.0
 16
0.0
 26
0.0
 36
1.0
 17
0.0
 27
0.0
 37
0.0
 40
297.0
 41
1.92798353909465
 42
50.0
 43
0.0
 44
0.0
 50
0.0
 51
0.0
 71
0
 72
100
 73
1
 74
3
 75
1
 76
1
 77
0
 78
0
281
0
 65
1
110
0.0
120
0.0
130
0.0
111
1.0
121
0.0
131
0.0
112
0.0
122
1.0
132
0.0
 79
0
146
0.0
  0
ENDTAB
  0
TABLE
  2
LTYPE
  5
5
100
AcDbSymbolTable
 70
21
  0
LTYPE
  5
14
100
AcDbSymbolTableRecord
100
AcDbLinetypeTableRecord
  2
ByBlock
 70
0
  3

 72
65
 73
0
 40
0.0
  0
LTYPE
  5
15
100
AcDbSymbolTableRecord
100
AcDbLinetypeTableRecord
  2
ByLayer
 70
0
  3

 72
65
 73
0
 40
0.0
  0
LTYPE
  5
16
100
AcDbSymbolTableRecord
100
AcDbLinetypeTableRecord
  2
CONTINUOUS
 70
0
  3
Solid line
 72
65
 73
0
 40
0.0
  0
LTYPE
  5
31
100
AcDbSymbolTableRecord
100
AcDbLinetypeTableRecord
  2
DOT
 70
0
  3
Dot . . . . . . . . . . . . . . . . . . . . . .
 72
65
 73
2
 40
6.3499999999999996
 49
0.0
 74
0
 49
-6.3499999999999996
 74
0
  0
LTYPE
  5
32
100
AcDbSymbolTableRecord
100
AcDbLinetypeTableRecord
  2
DOT2
 70
0
  3
Dot (.5x) .....................................
 72
65
 73
2
 40
3.1749999999999998
 49
0.0
 74
0
 49
-3.1749999999999998
 74
0
  0
LTYPE
  5
33
100
AcDbSymbolTableRecord
100
AcDbLinetypeTableRecord
  2
DOTX2
 70
0
  3
Dot (2x) .  .  .  .  .  .  .  .  .  .  .  .  .
 72
65
 73
2
 40
12.6999999999999993
 49
0.0
 74
0
 49
-12.6999999999999993
 74
0
  0
LTYPE
  5
34
100
AcDbSymbolTableRecord
100
AcDbLinetypeTableRecord
  2
DASHED
 70
0
  3
Dashed __ __ __ __ __ __ __ __ __ __ __ __ __ _
 72
65
 73
2
 40
19.0500000000000007
 49
12.6999999999999993
 74
0
 49
-6.3499999999999996
 74
0
  0
LTYPE
  5
35
100
AcDbSymbolTableRecord
100
AcDbLinetypeTableRecord
  2
DASHED2
 70
0
  3
Dashed (.5x) _ _ _ _ _ _ _ _ _ _ _ _ _ _ _ _ _
 72
65
 73
2
 40
9.5250000000000004
 49
6.3499999999999996
 74
0
 49
-3.1749999999999998
 74
0
  0
LTYPE
  5
36
100
AcDbSymbolTableRecord
100
AcDbLinetypeTableRecord
  2
DASHEDX2
 70
0
  3
Dashed (2x) ____  ____  ____  ____  ____  ___
 72
65
 73
2
 40
38.1000000000000014
 49
25.3999999999999986
 74
0
 49
-12.6999999999999993
 74
0
  0
LTYPE
  5
37
100
AcDbSymbolTableRecord
100
AcDbLinetypeTableRecord
  2
DASHDOT
 70
0
  3
Dash dot __ . __ . __ . __ . __ . __ . __ . __
 72
65
 73
4
 40
25.3999999999999986
 49
12.6999999999999993
 74
0
 49
-6.3499999999999996
 74
0
 49
0.0
 74
0
 49
-6.3499999999999996
 74
0
  0
LTYPE
  5
38
100
AcDbSymbolTableRecord
100
AcDbLinetypeTableRecord
  2
DASHDOT2
 70
0
  3
Dash dot (.5x) _._._._._._._._._._._._._._._.
 72
65
 73
4
 40
12.6999999999999993
 49
6.3499999999999996
 74
0
 49
-3.1749999999999998
 74
0
 49
0.0
 74
0
 49
-3.1749999999999998
 74
0
  0
LTYPE
  5
39
100
AcDbSymbolTableRecord
100
AcDbLinetypeTableRecord
  2
DASHDOTX2
 70
0
  3
Dash dot (2x) ____  .  ____  .  ____  .  ___
 72
65
 73
4
 40
50.7999999999999972
 49
25.3999999999999986
 74
0
 49
-12.6999999999999993
 74
0
 49
0.0
 74
0
 49
-12.6999999999999993
 74
0
  0
LTYPE
  5
3A
100
AcDbSymbolTableRecord
100
AcDbLinetypeTableRecord
  2
DIVIDE
 70
0
  3
Divide ____ . . ____ . . ____ . . ____ . . ____
 72
65
 73
6
 40
31.75
 49
12.6999999999999993
 74
0
 49
-6.3499999999999996
 74
0
 49
0.0
 74
0
 49
-6.3499999999999996
 74
0
 49
0.0
 74
0
 49
-6.3499999999999996
 74
0
  0
LTYPE
  5
3B
100
AcDbSymbolTableRecord
100
AcDbLinetypeTableRecord
  2
DIVIDE2
 70
0
  3
Divide (.5x) __..__..__..__..__..__..__..__.._
 72
65
 73
6
 40
15.875
 49
6.3499999999999996
 74
0
 49
-3.1749999999999998
 74
0
 49
0.0
 74
0
 49
-3.1749999999999998
 74
0
 49
0.0
 74
0
 49
-3.1749999999999998
 74
0
  0
LTYPE
  5
3C
100
AcDbSymbolTableRecord
100
AcDbLinetypeTableRecord
  2
DIVIDEX2
 70
0
  3
Divide (2x) ________  .  .  ________  .  .  _
 72
65
 73
6
 40
63.5
 49
25.3999999999999986
 74
0
 49
-12.6999999999999993
 74
0
 49
0.0
 74
0
 49
-12.6999999999999993
 74
0
 49
0.0
 74
0
 49
-12.6999999999999993
 74
0
  0
LTYPE
  5
3D
100
AcDbSymbolTableRecord
100
AcDbLinetypeTableRecord
  2
CENTER
 70
0
  3
Center ____ _ ____ _ ____ _ ____ _ ____ _ ____
 72
65
 73
4
 40
50.7999999999999972
 49
31.75
 74
0
 49
-6.3499999999999996
 74
0
 49
6.3499999999999996
 74
0
 49
-6.3499999999999996
 74
0
  0
LTYPE
  5
3E
100
AcDbSymbolTableRecord
100
AcDbLinetypeTableRecord
  2
CENTER2
 70
0
  3
Center (.5x) ___ _ ___ _ ___ _ ___ _ ___ _ ___
 72
65
 73
4
 40
28.5749999999999993
 49
19.0500000000000007
 74
0
 49
-3.1749999999999998
 74
0
 49
3.1749999999999998
 74
0
 49
-3.1749999999999998
 74
0
  0
LTYPE
  5
3F
100
AcDbSymbolTableRecord
100
AcDbLinetypeTableRecord
  2
CENTERX2
 70
0
  3
Center (2x) ________  __  ________  __  _____
 72
65
 73
4
 40
101.5999999999999943
 49
63.5
 74
0
 49
-12.6999999999999993
 74
0
 49
12.6999999999999993
 74
0
 49
-12.6999999999999993
 74
0
  0
LTYPE
  5
40
100
AcDbSymbolTableRecord
100
AcDbLinetypeTableRecord
  2
BORDER
 70
0
  3
Border __ __ . __ __ . __ __ . __ __ . __ __ .
 72
65
 73
6
 40
44.4500000000000028
 49
12.6999999999999993
 74
0
 49
-6.3499999999999996
 74
0
 49
12.6999999999999993
 74
0
 49
-6.3499999999999996
 74
0
 49
0.0
 74
0
 49
-6.3499999999999996
 74
0
  0
LTYPE
  5
41
100
AcDbSymbolTableRecord
100
AcDbLinetypeTableRecord
  2
BORDER2
 70
0
  3
Border (.5x) __.__.__.__.__.__.__.__.__.__.__.
 72
65
 73
6
 40
22.2250000000000014
 49
6.3499999999999996
 74
0
 49
-3.1749999999999998
 74
0
 49
6.3499999999999996
 74
0
 49
-3.1749999999999998
 74
0
 49
0.0
 74
0
 49
-3.1749999999999998
 74
0
  0
LTYPE
  5
42
100
AcDbSymbolTableRecord
100
AcDbLinetypeTableRecord
  2
BORDERX2
 70
0
  3
Border (2x) ____  ____  .  ____  ____  .  ___
 72
65
 73
6
 40
88.9000000000000057
 49
25.3999999999999986
 74
0
 49
-12.6999999999999993
 74
0
 49
25.3999999999999986
 74
0
 49
-12.6999999999999993
 74
0
 49
0.0
 74
0
 49
-12.6999999999999993
 74
0
  0
ENDTAB
  0
TABLE
  2
LAYER
  5
2
100
AcDbSymbolTable
 70
3
  0
LAYER
  5
10
100
AcDbSymbolTableRecord
100
AcDbLayerTableRecord
  2
0
 70
0
 62
7
  6
CONTINUOUS
370
35
390
F
  0
LAYER
  5
43
100
AcDbSymbolTableRecord
100
AcDbLayerTableRecord
  2
Pad
 70
0
 62
3
  6
CONTINUOUS
370
35
390
F
  0
LAYER
  5
44
100
AcDbSymbolTableRecord
100
AcDbLayerTableRecord
  2
Dimensions
 70
0
 62
5
  6
CONTINUOUS
370
35
390
F
  0
ENDTAB
  0
TABLE
  2
STYLE
  5
3
100
AcDbSymbolTable
 70
1
  0
STYLE
  5
11
100
AcDbSymbolTableRecord
100
AcDbTextStyleTableRecord
  2
Standard
 70
0
 40
0.0
 41
0.75
 50
0.0
 71
0
 42
2.5
  3
txt
  4

  0
ENDTAB
  0
TABLE
  2
VIEW
  5
6
100
AcDbSymbolTable
 70
0
  0
ENDTAB
  0
TABLE
  2
UCS
  5
7
100
AcDbSymbolTable
 70
0
  0
ENDTAB
  0
TABLE
  2
APPID
  5
9
100
AcDbSymbolTable
 70
1
  0
APPID
  5
12
100
AcDbSymbolTableRecord
100
AcDbRegAppTableRecord
  2
ACAD
 70
0
  0
ENDTAB
  0
TABLE
  2
DIMSTYLE
  5
A
100
AcDbSymbolTable
 70
1
100
AcDbDimStyleTable
 71
0
  0
DIMSTYLE
105
27
100
AcDbSymbolTableRecord
100
AcDbDimStyleTableRecord
  2
Standard
 41
2.5
 42
0.625
 43
3.75
 44
1.25
 70
0
 73
0
 74
0
 77
1
 78
8
140
2.5
141
2.5
143
0.03937007874016
147
0.625
171
3
172
1
271
2
272
2
274
3
278
44
283
0
284
8
340
11
  0
ENDTAB
  0
TABLE
  2
BLOCK_RECORD
  5
1
100
AcDbSymbolTable
 70
1
  0
BLOCK_RECORD
  5
1F
100
AcDbSymbolTableRecord
100
AcDbBlockTableRecord
  2
*Model_Space
340
22
  0
BLOCK_RECORD
  5
1B
100
AcDbSymbolTableRecord
100
AcDbBlockTableRecord
  2
*Paper_Space
340
1E
  0
BLOCK_RECORD
  5
23
100
AcDbSymbolTableRecord
100
AcDbBlockTableRecord
  2
*Paper_Space0
340
26
  0
ENDTAB
  0
ENDSEC
  0
SECTION
  2
BLOCKS
  0
BLOCK
  5
20
100
AcDbEntity
  8
0
100
AcDbBlockBegin
  2
*Model_Space
 70
0
 10
0.0
 20
0.0
 30
0.0
  3
*Model_Space
  1

  0
ENDBLK
  5
21
100
AcDbEntity
  8
0
100
AcDbBlockEnd
  0
BLOCK
  5
1C
100
AcDbEntity
 67
1
  8
0
100
AcDbBlockBegin
  2
*Paper_Space
 70
0
 10
0.0
 20
0.0
 30
0.0
  3
*Paper_Space
  1

  0
ENDBLK
  5
1D
100
AcDbEntity
 67
1
  8
0
100
AcDbBlockEnd
  0
BLOCK
  5
24
100
AcDbEntity
  8
0
100
AcDbBlockBegin
  2
*Paper_Space0
 70
0
 10
0.0
 20
0.0
 30
0.0
  3
*Paper_Space0
  1

  0
ENDBLK
  5
25
100
AcDbEntity
  8
0
100
AcDbBlockEnd
  0
ENDSEC
  0
SECTION
  2
ENTITIES
  0
ARC
  5
45
100
AcDbEntity
  8
Pad
 62
256
370
-1
  6
ByLayer
100
AcDbCircle
 10
0.0
 20
0.0
 30
0.0
 40
61.0
100
AcDbArc
 50
60.0362434679264823
 51
73.0362434679264823
  0
ARC
  5
46
100
AcDbEntity
  8
Pad
 62
256
370
-1
  6
ByLayer
100
AcDbCircle
 10
0.0
 20
0.0
 30
0.0
 40
79.0
100
AcDbArc
 50
60.0362434679264823
 51
73.0362434679264823
  0
LINE
  5
47
100
AcDbEntity
100
AcDbLine
  8
Pad
 62
256
370
-1
  6
ByLayer
 10
17.7977698362339218
 20
58.3458600832693364
 30
0.0
 11
23.0495707715160627
 21
75.5626712553815878
 31
0.0
  0
LINE
  5
48
100
AcDbEntity
100
AcDbLine
  8
Pad
 62
256
370
-1
  6
ByLayer
 10
30.4665768906950127
 20
52.8468323796551687
 30
0.0
 11
39.4567143338509112
 21
68.4409796392255316
 31
0.0
  0
ARC
  5
49
100
AcDbEntity
  8
Pad
 62
256
370
-1
  6
ByLayer
100
AcDbCircle
 10
0.0
 20
0.0
 30
0.0
 40
61.0
100
AcDbArc
 50
75.0362434679264823
 51
88.036243467926468
  0
ARC
  5
4A
100
AcDbEntity
  8
Pad
 62
256
370
-1
  6
ByLayer
100
AcDbCircle
 10
0.0
 20
0.0
 30
0.0
 40
79.0
100
AcDbArc
 50
75.0362434679264823
 51
88.036243467926468
  0
LINE
  5
4B
100
AcDbEntity
100
AcDbLine
  8
Pad
 62
256
370
-1
  6
ByLayer
 10
2.0903057427298601
 20
60.9641749054468107
 30
0.0
 11
2.7071172733714577
 21
78.9536035660704414
 31
0.0
  0
LINE
  5
4C
100
AcDbEntity
100
AcDbLine
  8
Pad
 62
256
370
-1
  6
ByLayer
 10
15.7506867641486821
 20
58.9314505714705206
 30
0.0
 11
20.3984303994712555
 21
76.3210589368224674
 31
0.0
  0
ARC
  5
4D
100
AcDbEntity
  8
Pad
 62
256
370
-1
  6
ByLayer
100
AcDbCircle
 10
0.0
 20
0.0
 30
0.0
 40
61.0
100
AcDbArc
 50
90.0362434679264823
 51
103.036243467926468
  0
ARC
  5
4E
100
AcDbEntity
  8
Pad
 62
256
370
-1
  6
ByLayer
100
AcDbCircle
 10
0.0
 20
0.0
 30
0.0
 40
79.0
100
AcDbArc
 50
90.0362434679264823
 51
103.036243467926468
  0
LINE
  5
4F
100
AcDbEntity
100
AcDbLine
  8
Pad
 62
256
370
-1
  6
ByLayer
 10
-13.7596092327476729
 20
59.4278819558806504
 30
0.0
 11
-17.819821793230588
 21
76.9639782707306637
 31
0.0
  0
LINE
  5
50
100
AcDbEntity
100
AcDbLine
  8
Pad
 62
256
370
-1
  6
ByLayer
 10
-0.0385866361337898
 20
60.9999877956669252
 30
0.0
 11
-0.0499728566322852
 21
78.9999841943882899
 31
0.0
  0
ARC
  5
51
100
AcDbEntity
  8
Pad
 62
256
370
-1
  6
ByLayer
100
AcDbCircle
 10
0.0
 20
0.0
 30
0.0
 40
61.0
100
AcDbArc
 50
105.0362434679264823
 51
118.0362434679264823
  0
ARC
  5
52
100
AcDbEntity
  8
Pad
 62
256
370
-1
  6
ByLayer
100
AcDbCircle
 10
0.0
 20
0.0
 30
0.0
 40
79.0
100
AcDbArc
 50
105.0362434679264823
 51
118.0362434679264823
  0
LINE
  5
53
100
AcDbEntity
100
AcDbLine
  8
Pad
 62
256
370
-1
  6
ByLayer
 10
-28.6718295778428498
 20
53.8416770602396397
 30
0.0
 11
-37.1323694532718775
 21
69.7293850452283834
 31
0.0
  0
LINE
  5
54
100
AcDbEntity
100
AcDbLine
  8
Pad
 62
256
370
-1
  6
ByLayer
 10
-15.825230420931188
 20
58.9114766588347862
 30
0.0
 11
-20.4949705451403688
 21
76.2951910827532345
 31
0.0
  0
ARC
  5
55
100
AcDbEntity
  8
0
 62
256
370
-1
  6
ByLayer
100
AcDbCircle
 10
0.0
 20
0.0
 30
0.0
 40
60.0
100
AcDbArc
 50
59.0362434679264823
 51
119.036243467926468
  0
LINE
  5
56
100
AcDbEntity
100
AcDbLine
  8
0
 62
256
370
-1
  6
ByLayer
 10
-29.1217667711245269
 20
52.4587714317465412
 30
0.0
 11
-38.8290223614993693
 21
69.9450285756620502
 31
0.0
  0
LINE
  5
57
100
AcDbEntity
100
AcDbLine
  8
0
 62
256
370
-1
  6
ByLayer
 10
-14.5521375021799813
 20
58.208550008719925
 30
0.0
 11
-19.4028500029066358
 21
77.611400011626543
 31
0.0
  0
LINE
  5
58
100
AcDbEntity
100
AcDbLine
  8
0
 62
256
370
-1
  6
ByLayer
 10
1.0091958889938886
 20
59.9915120967761482
 30
0.0
 11
1.3455945186585176
 21
79.9886827957015072
 31
0.0
  0
LINE
  5
59
100
AcDbEntity
100
AcDbLine
  8
0
 62
256
370
-1
  6
ByLayer
 10
16.5017542481078721
 20
57.6861517760983489
 30
0.0
 11
22.0023389974771568
 21
76.9148690347977748
 31
0.0
  0
LINE
  5
5A
100
AcDbEntity
100
AcDbLine
  8
Pad
 62
256
370
-1
  6
ByLayer
 10
32.8988532625933914
 20
74.0180076333208774
 30
0.0
 11
40.20970954316968
 21
90.4664537740588628
 31
0.0
  0
LINE
  5
5B
100
AcDbEntity
100
AcDbLine
  8
Pad
 62
256
370
-1
  6
ByLayer
 10
22.2773682349456088
 20
77.8763048977327657
 30
0.0
 11
27.2278945093779647
 21
95.1821504305622739
 31
0.0
  0
ARC
  5
5C
100
AcDbEntity
  8
Pad
 62
256
370
-1
  6
ByLayer
100
AcDbCircle
 10
0.0
 20
0.0
 30
0.0
 40
99.0
100
AcDbArc
 50
66.0362434679264965
 51
74.0362434679264965
  0
ARC
  5
5D
100
AcDbEntity
  8
Pad
 62
256
370
-1
  6
ByLayer
100
AcDbCircle
 10
0.0
 20
0.0
 30
0.0
 40
81.0
100
AcDbArc
 50
66.0362434679264965
 51
74.0362434679264965
  0
LINE
  5
5E
100
AcDbEntity
100
AcDbLine
  8
0
 62
256
370
-1
  6
ByLayer
 10
33.7635900847279018
 20
72.5259952333676381
 30
0.0
 11
42.204487605909847
 21
90.6574940417095263
 31
0.0
  0
LINE
  5
5F
100
AcDbEntity
100
AcDbLine
  8
Pad
 62
256
370
-1
  6
ByLayer
 10
19.5459536181498343
 20
78.6063336961922801
 30
0.0
 11
23.8894988666275552
 21
96.074407850901693
 31
0.0
  0
LINE
  5
60
100
AcDbEntity
100
AcDbLine
  8
Pad
 62
256
370
-1
  6
ByLayer
 10
8.4158465255567858
 20
80.5616132364432929
 30
0.0
 11
10.2860346423471825
 21
98.4641939556529024
 31
0.0
  0
ARC
  5
61
100
AcDbEntity
  8
Pad
 62
256
370
-1
  6
ByLayer
100
AcDbCircle
 10
0.0
 20
0.0
 30
0.0
 40
99.0
100
AcDbArc
 50
76.0362434679264965
 51
84.0362434679264965
  0
ARC
  5
62
100
AcDbEntity
  8
Pad
 62
256
370
-1
  6
ByLayer
100
AcDbCircle
 10
0.0
 20
0.0
 30
0.0
 40
81.0
100
AcDbArc
 50
76.0362434679264965
 51
84.0362434679264965
  0
LINE
  5
63
100
AcDbEntity
100
AcDbLine
  8
0
 62
256
370
-1
  6
ByLayer
 10
20.6566383792113832
 20
77.2871482904531319
 30
0.0
 11
25.8207979740142015
 21
96.6089353630663936
 31
0.0
  0
LINE
  5
64
100
AcDbEntity
100
AcDbLine
  8
Pad
 62
256
370
-1
  6
ByLayer
 10
5.5991600637485641
 20
80.8062460864290131
 30
0.0
 11
6.8434178556926675
 21
98.7631896611910065
 31
0.0
  0
LINE
  5
65
100
AcDbEntity
100
AcDbLine
  8
Pad
 62
256
370
-1
  6
ByLayer
 10
-5.7013864218872561
 20
80.7990977231077778
 30
0.0
 11
-6.9683611823066451
 21
98.754452772687273
 31
0.0
  0
ARC
  5
66
100
AcDbEntity
  8
Pad
 62
256
370
-1
  6
ByLayer
100
AcDbCircle
 10
0.0
 20
0.0
 30
0.0
 40
99.0
100
AcDbArc
 50
86.0362434679264965
 51
94.0362434679264965
  0
ARC
  5
67
100
AcDbEntity
  8
Pad
 62
256
370
-1
  6
ByLayer
100
AcDbCircle
 10
0.0
 20
0.0
 30
0.0
 40
81.0
100
AcDbArc
 50
86.0362434679264965
 51
94.0362434679264965
  0
LINE
  5
68
100
AcDbEntity
100
AcDbLine
  8
0
 62
256
370
-1
  6
ByLayer
 10
6.9220451693059015
 20
79.6999704559172812
 30
0.0
 11
8.6525564616323543
 21
99.6249630698965802
 31
0.0
  0
LINE
  5
69
100
AcDbEntity
100
AcDbLine
  8
Pad
 62
256
370
-1
  6
ByLayer
 10
-8.5177611358780059
 20
80.5509015792630692
 30
0.0
 11
-10.4105969438508943
 21
98.4511019302103989
 31
0.0
  0
LINE
  5
6A
100
AcDbEntity
100
AcDbLine
  8
Pad
 62
256
370
-1
  6
ByLayer
 10
-19.6453856279429715
 20
78.581542511771886
 30
0.0
 11
-24.0110268785969687
 21
96.0441075143878749
 31
0.0
  0
ARC
  5
6B
100
AcDbEntity
  8
Pad
 62
256
370
-1
  6
ByLayer
100
AcDbCircle
 10
0.0
 20
0.0
 30
0.0
 40
99.0
100
AcDbArc
 50
96.0362434679264965
 51
104.0362434679264823
  0
ARC
  5
6C
100
AcDbEntity
  8
Pad
 62
256
370
-1
  6
ByLayer
100
AcDbCircle
 10
0.0
 20
0.0
 30
0.0
 40
81.0
100
AcDbArc
 50
96.0362434679264965
 51
104.0362434679264823
  0
LINE
  5
6D
100
AcDbEntity
100
AcDbLine
  8
0
 62
256
370
-1
  6
ByLayer
 10
-7.0228708803450548
 20
79.6911493492094252
 30
0.0
 11
-8.7785886004313607
 21
99.6139366865117637
 31
0.0
  0
LINE
  5
6E
100
AcDbEntity
100
AcDbLine
  8
Pad
 62
256
370
-1
  6
ByLayer
 10
-22.3758744735860091
 20
77.8480586883341772
 30
0.0
 11
-27.3482910232718339
 21
95.1476272857417484
 31
0.0
  0
LINE
  5
6F
100
AcDbEntity
100
AcDbLine
  8
Pad
 62
256
370
-1
  6
ByLayer
 10
-32.9924697327384635
 20
73.976326895394962
 30
0.0
 11
-40.3241296733470165
 21
90.415510649927171
 31
0.0
  0
ARC
  5
70
100
AcDbEntity
  8
Pad
 62
256
370
-1
  6
ByLayer
100
AcDbCircle
 10
0.0
 20
0.0
 30
0.0
 40
99.0
100
AcDbArc
 50
106.0362434679264823
 51
114.0362434679264965
  0
ARC
  5
71
100
AcDbEntity
  8
Pad
 62
256
370
-1
  6
ByLayer
100
AcDbCircle
 10
0.0
 20
0.0
 30
0.0
 40
81.0
100
AcDbArc
 50
106.0362434679264823
 51
114.0362434679264965
  0
LINE
  5
72
100
AcDbEntity
100
AcDbLine
  8
0
 62
256
370
-1
  6
ByLayer
 10
-20.7544005520408987
 20
77.2609529951931364
 30
0.0
 11
-25.9430006900511181
 21
96.576191243991417
 31
0.0
  0
LINE
  5
73
100
AcDbEntity
100
AcDbLine
  8
Pad
 62
256
370
-1
  6
ByLayer
 10
-35.5541081881529522
 20
72.7798419271786656
 30
0.0
 11
-43.4550211188536153
 21
88.9531401332183975
 31
0.0
  0
LINE
  5
74
100
AcDbEntity
100
AcDbLine
  8
Pad
 62
256
370
-1
  6
ByLayer
 10
-45.3370943396998953
 20
67.1233780201291097
 30
0.0
 11
-55.4120041929665774
 21
82.0396842468244216
 31
0.0
  0
ARC
  5
75
100
AcDbEntity
  8
Pad
 62
256
370
-1
  6
ByLayer
100
AcDbCircle
 10
0.0
 20
0.0
 30
0.0
 40
99.0
100
AcDbArc
 50
116.0362434679264965
 51
124.0362434679264823
  0
ARC
  5
76
100
AcDbEntity
  8
Pad
 62
256
370
-1
  6
ByLayer
100
AcDbCircle
 10
0.0
 20
0.0
 30
0.0
 40
81.0
100
AcDbArc
 50
116.0362434679264965
 51
124.0362434679264823
  0
LINE
  5
77
100
AcDbEntity
100
AcDbLine
  8
0
 62
256
370
-1
  6
ByLayer
 10
-33.8553182651963667
 20
72.4832216803465599
 30
0.0
 11
-42.3191478314954921
 21
90.6040271004331714
 31
0.0
  0
LINE
  5
78
100
AcDbEntity
100
AcDbLine
  8
0
 62
256
370
-1
  6
ByLayer
 10
-45.9275592644815021
 20
65.5031243530225709
 30
0.0
 11
-57.4094490806019238
 21
81.8789054412782065
 31
0.0
  0
ARC
  5
79
100
AcDbEntity
  8
0
 62
256
370
-1
  6
ByLayer
100
AcDbCircle
 10
0.0
 20
0.0
 30
0.0
 40
80.0
100
AcDbArc
 50
59.0362434679264823
 51
125.036243467926468
  0
ARC
  5
7A
100
AcDbEntity
  8
0
 62
256
370
-1
  6
ByLayer
100
AcDbCircle
 10
0.0
 20
0.0
 30
0.0
 40
100.0
100
AcDbArc
 50
65.0362434679265107
 51
125.0362434679264965
  0
DIMENSION
  5
7B
100
AcDbEntity
  8
Dimensions
 62
256
370
-1
  6
ByLayer
100
AcDbDimension
 10
35.2815100315339407
 20
48.8025167192232345
 30
0.0
 11
18.2388381329971274
 21
24.042408489273523
 31
0.0
 70
1
 71
5
 72
1
 41
1.0
 42
0.0
  1
rMin
  3
Standard
100
AcDbAlignedDimension
 13
0.0
 23
0.0
 33
0.0
 14
30.8697453256515857
 24
51.4495755427526476
 34
0.0
  0
LINE
  5
7C
100
AcDbEntity
100
AcDbLine
  8
0
 62
256
370
-1
  6
ByLayer
 10
-0.0000000000000009
 20
0.0
 30
0.0
 11
60.0
 21
100.0
 31
0.0
  0
LINE
  5
7D
100
AcDbEntity
100
AcDbLine
  8
0
 62
256
370
-1
  6
DASHED
 10
0.0
 20
0.0
 30
0.0
 11
-3.7883499999999999
 21
106.5520000000000067
 31
0.0
  0
LINE
  5
7E
100
AcDbEntity
100
AcDbLine
  8
0
 62
256
370
-1
  6
DASHED
 10
0.0
 20
0.0
 30
0.0
 11
-61.2094000000000023
 21
87.2985000000000042
 31
0.0
  0
LINE
  5
7F
100
AcDbEntity
100
AcDbLine
  8
0
 62
256
370
-1
  6
ByLayer
 10
-45.9275592644815021
 20
65.5031243530225709
 30
0.0
 11
-57.4094490806019095
 21
81.878905441278178
 31
0.0
  0
ARC
  5
80
100
AcDbEntity
  8
0
 62
256
370
-1
  6
DOT
100
AcDbCircle
 10
0.0
 20
0.0
 30
0.0
 40
90.0
100
AcDbArc
 50
65.0361999999999938
 51
125.0359999999999872
  0
ARC
  5
81
100
AcDbEntity
  8
0
 62
256
370
-1
  6
DOT
100
AcDbCircle
 10
0.0
 20
0.0
 30
0.0
 40
70.0
100
AcDbArc
 50
59.0361999999999938
 51
119.0359999999999872
  0
ARC
  5
82
100
AcDbEntity
  8
0
 62
256
370
-1
  6
DASHED
100
AcDbCircle
 10
0.0
 20
0.0
 30
0.0
 40
90.0
100
AcDbArc
 50
59.0361999999999938
 51
65.0361999999999938
  0
MTEXT
  5
83
100
AcDbEntity
100
AcDbMText
  8
0
 62
256
370
-1
  6
ByLayer
 10
-17.0
 20
26.0
 30
0.0
 40
3.0
 41
100.0
 71
1
 72
2
  1
phiMax
  7
normallatin1
 50
125.0
 73
1
 44
1.0
  0
MTEXT
  5
84
100
AcDbEntity
100
AcDbMText
  8
0
 62
256
370
-1
  6
ByLayer
 10
15.0
 20
32.0
 30
0.0
 40
3.0
 41
100.0
 71
1
 72
2
  1
phiMin
  7
normallatin1
 50
58.9999999999999929
 73
1
 44
1.0
  0
MTEXT
  5
85
100
AcDbEntity
100
AcDbMText
  8
Dimensions
 62
256
370
-1
  6
ByLayer
 10
51.9350399999999723
 20
93.8361599999999925
 30
0.0
 40
3.0
 41
100.0
 71
1
 72
2
  1
phi=0
  7
normallatin1
 50
58.9999999999999929
 73
1
 44
1.0
  0
MTEXT
  5
86
100
AcDbEntity
100
AcDbMText
  8
0
 62
256
370
-1
  6
ByLayer
 10
-4.7168000000000161
 20
21.8863999999997922
 30
0.0
 40
3.0
 41
100.0
 71
1
 72
2
  1
phiModuleCentre
  7
normallatin1
 50
92.0
 73
1
 44
1.0
  0
DIMENSION
  5
87
100
AcDbEntity
  8
Dimensions
 62
256
370
-1
  6
ByLayer
100
AcDbDimension
 10
-0.2215876320565134
 20
71.5474934492422392
 30
0.0
 11
-8.3077399391487106
 21
72.5082780987246593
 31
0.0
 70
1
 71
5
 72
1
 41
1.0
 42
0.0
  1
padWidth
  3
Standard
100
AcDbAlignedDimension
 13
-15.7897155129891313
 23
68.1959301133056641
 33
0.0
 14
-0.0442797463830375
 24
69.9999859950276004
 34
0.0
  0
DIMENSION
  5
88
100
AcDbEntity
  8
Dimensions
 62
256
370
-1
  6
ByLayer
100
AcDbDimension
 10
20.3984303994712519
 20
76.3210589368224532
 30
0.0
 11
16.2631410437524728
 21
68.1103947161592487
 31
0.0
 70
1
 71
5
 72
1
 41
1.0
 42
0.0
  1
padHeight
  3
Standard
100
AcDbAlignedDimension
 13
15.7506867641486785
 23
58.9314505714705064
 33
0.0
 14
20.3984303994712519
 24
76.3210589368224532
 34
0.0
  0
DIMENSION
  5
89
100
AcDbEntity
  8
Dimensions
 62
256
370
-1
  6
ByLayer
100
AcDbDimension
 10
37.0229212872339275
 20
62.3472653239857451
 30
0.0
 11
29.3881598207949466
 21
67.7052283643921697
 31
0.0
 70
1
 71
5
 72
1
 41
1.0
 42
0.0
  1
padPitch
  3
Standard
100
AcDbAlignedDimension
 13
19.2520466227925127
 23
67.3005104054480654
 33
0.0
 14
36.0147028799268583
 24
60.0245047998780947
 34
0.0
  0
DIMENSION
  5
8A
100
AcDbEntity
  8
Dimensions
 62
256
370
-1
  6
ByLayer
100
AcDbDimension
 10
45.5714251400844645
 20
65.9523752334741147
 30
0.0
 11
38.8186683500981786
 21
58.342125517775294
 31
0.0
 70
1
 71
5
 72
1
 41
1.0
 42
0.0
  1
rowHeight
  3
Standard
100
AcDbAlignedDimension
 13
30.8697453256515857
 23
51.4495755427526476
 33
0.0
 14
41.1596604342021166
 24
68.5994340570035206
 34
0.0
  0
DIMENSION
  5
8B
100
AcDbEntity
  8
Dimensions
 62
256
370
-1
  6
ByLayer
100
AcDbDimension
 10
47.3311359140892094
 20
79.1079124050033471
 30
0.0
 11
44.0500581137044449
 21
82.9726862957135722
 31
0.0
 70
1
 71
5
 72
1
 41
1.0
 42
0.0
  1
offset
  3
Standard
100
AcDbAlignedDimension
 13
37.9840388453188709
 23
81.5917446375385822
 33
0.0
 14
46.3046179884773892
 24
77.174363314128982
 34
0.0
  0
ENDSEC
  0
SECTION
  2
OBJECTS
  0
DICTIONARY
  5
C
100
AcDbDictionary
280
0
281
1
  3
ACAD_GROUP
350
D
  3
ACAD_LAYOUT
350
1A
  3
ACAD_MLINESTYLE
350
17
  3
ACAD_PLOTSETTINGS
350
19
  3
ACAD_PLOTSTYLENAME
350
E
  3
AcDbVariableDictionary
350
8C
  0
DICTIONARY
  5
D
100
AcDbDictionary
280
0
281
1
  0
ACDBDICTIONARYWDFLT
  5
E
100
AcDbDictionary
281
1
  3
Normal
350
F
100
AcDbDictionaryWithDefault
340
F
  0
ACDBPLACEHOLDER
  5
F
  0
DICTIONARY
  5
17
100
AcDbDictionary
280
0
281
1
  3
Standard
350
18
  0
MLINESTYLE
  5
18
100
AcDbMlineStyle
  2
STANDARD
 70
0
  3

 62
256
 51
90.0
 52
90.0
 71
2
 49
0.5
 62
256
  6
BYLAYER
 49
-0.5
 62
256
  6
BYLAYER
  0
DICTIONARY
  5
19
100
AcDbDictionary
280
0
281
1
  0
DICTIONARY
  5
1A
100
AcDbDictionary
281
1
  3
Layout1
350
1E
  3
Layout2
350
26
  3
Model
350
22
  0
LAYOUT
  5
1E
100
AcDbPlotSettings
  1

  2
C:\Program Files\AutoCAD 2002\plotters\DWF ePlot (optimized for plotting).pc3
  4

  6

 40
0.0
 41
0.0
 42
0.0
 43
0.0
 44
0.0
 45
0.0
 46
0.0
 47
0.0
 48
0.0
 49
0.0
140
0.0
141
0.0
142
1.0
143
1.0
 70
688
 72
0
 73
0
 74
5
  7

 75
16
147
1.0
148
0.0
149
0.0
100
AcDbLayout
  1
Layout1
 70
1
 71
1
 10
0.0
 20
0.0
 11
420.0
 21
297.0
 12
0.0
 22
0.0
 32
0.0
 14
100000000000000000000.0
 24
100000000000000000000.0
 34
100000000000000000000.0
 15
-100000000000000000000.0
 25
-100000000000000000000.0
 35
-100000000000000000000.0
146
0.0
 13
0.0
 23
0.0
 33
0.0
 16
1.0
 26
0.0
 36
0.0
 17
0.0
 27
1.0
 37
0.0
 76
0
330
1B
  0
LAYOUT
  5
22
100
AcDbPlotSettings
  1

  2
C:\Program Files\AutoCAD 2002\plotters\DWF ePlot (optimized for plotting).pc3
  4

  6

 40
0.0
 41
0.0
 42
0.0
 43
0.0
 44
0.0
 45
0.0
 46
0.0
 47
0.0
 48
0.0
 49
0.0
140
0.0
141
0.0
142
1.0
143
1.0
 70
1712
 72
0
 73
0
 74
0
  7

 75
0
147
1.0
148
0.0
149
0.0
100
AcDbLayout
  1
Model
 70
1
 71
0
 10
0.0
 20
0.0
 11
12.0
 21
9.0
 12
0.0
 22
0.0
 32
0.0
 14
0.0
 24
0.0
 34
0.0
 15
0.0
 25
0.0
 35
0.0
146
0.0
 13
0.0
 23
0.0
 33
0.0
 16
1.0
 26
0.0
 36
0.0
 17
0.0
 27
1.0
 37
0.0
 76
0
330
1F
  0
LAYOUT
  5
26
100
AcDbPlotSettings
  1

  2
C:\Program Files\AutoCAD 2002\plotters\DWF ePlot (optimized for plotting).pc3
  4

  6

 40
0.0
 41
0.0
 42
0.0
 43
0.0
 44
0.0
 45
0.0
 46
0.0
 47
0.0
 48
0.0
 49
0.0
140
0.0
141
0.0
142
1.0
143
1.0
 70
688
 72
0
 73
0
 74
5
  7

 75
16
147
1.0
148
0.0
149
0.0
100
AcDbLayout
  1
Layout2
 70
1
 71
2
 10
0.0
 20
0.0
 11
12.0
 21
9.0
 12
0.0
 22
0.0
 32
0.0
 14
0.0
 24
0.0
 34
0.0
 15
0.0
 25
0.0
 35
0.0
146
0.0
 13
0.0
 23
0.0
 33
0.0
 16
1.0
 26
0.0
 36
0.0
 17
0.0
 27
1.0
 37
0.0
 76
0
330
23
  0
DICTIONARY
  5
8C
100
AcDbDictionary
281
1
  3
DIMASSOC
350
8E
  3
HIDETEXT
350
8D
  0
DICTIONARYVAR
  5
8D
100
DictionaryVariables
280
0
  1
2
  0
DICTIONARYVAR
  5
8E
100
DictionaryVariables
280
0
  1
1
  0
ENDSEC
  0
EOF
